<?xml version="1.0" ?><!DOCTYPE svg  PUBLIC '-//W3C//DTD SVG 1.1//EN'  'http://www.w3.org/Graphics/SVG/1.1/DTD/svg11.dtd'><svg enable-background="new 0 0 512 512" id="Layer_1" version="1.1" viewBox="0 0 512 512" xml:space="preserve" xmlns="http://www.w3.org/2000/svg" xmlns:xlink="http://www.w3.org/1999/xlink"><g><path d="M512,256c0,141.4-114.6,256-256,256S0,397.4,0,256S114.6,0,256,0C397.4,0,512,114.6,512,256z" fill="#181A1B"/><polygon fill="#05CC47" points="351.6,163 351.6,102.4 298.2,102.4 291,106.9 263,158.9 254.1,164.5 160.8,164.5 160.8,240.1    210.7,240.1 216.2,245.6 160.4,348.9 160.4,409.6 213.8,409.6 221,405 249.1,353.1 259.8,346.3 351.3,346.3 351.3,270.7    300.2,270.7 295.9,266.4  "/></g></svg>